<mxfile host="app.diagrams.net" agent="Mozilla/5.0 (Windows NT 10.0; Win64; x64) AppleWebKit/537.36 (KHTML, like Gecko) Chrome/133.0.0.0 Safari/537.36 Edg/133.0.0.0" version="26.0.16">
  <diagram name="Page-1" id="jJC0hUXM4VtqDBekx6Z7">
    <mxGraphModel dx="1606" dy="872" grid="0" gridSize="10" guides="1" tooltips="1" connect="1" arrows="1" fold="1" page="1" pageScale="1" pageWidth="850" pageHeight="1100" math="0" shadow="0">
      <root>
        <mxCell id="0" />
        <mxCell id="1" parent="0" />
        <mxCell id="6PyI1DLjHxqbDS-QXg7F-1" value="" style="strokeWidth=1;shadow=0;dashed=0;align=center;html=1;shape=mxgraph.mockup.containers.browserWindow;rSize=0;strokeColor=#666666;strokeColor2=#008cff;strokeColor3=#c4c4c4;mainText=,;recursiveResize=0;" vertex="1" parent="1">
          <mxGeometry x="34" y="28" width="667" height="455" as="geometry" />
        </mxCell>
        <mxCell id="6PyI1DLjHxqbDS-QXg7F-2" value="Hybrid iPass" style="strokeWidth=1;shadow=0;dashed=0;align=center;html=1;shape=mxgraph.mockup.containers.anchor;fontSize=17;fontColor=#666666;align=left;whiteSpace=wrap;" vertex="1" parent="6PyI1DLjHxqbDS-QXg7F-1">
          <mxGeometry x="60" y="12" width="141" height="26" as="geometry" />
        </mxCell>
        <mxCell id="6PyI1DLjHxqbDS-QXg7F-3" value="https://&amp;lt;tenant&amp;gt;.hybrid-ipass.ibm.com" style="strokeWidth=1;shadow=0;dashed=0;align=center;html=1;shape=mxgraph.mockup.containers.anchor;rSize=0;fontSize=17;fontColor=#666666;align=left;" vertex="1" parent="6PyI1DLjHxqbDS-QXg7F-1">
          <mxGeometry x="130" y="60" width="250" height="26" as="geometry" />
        </mxCell>
        <mxCell id="6PyI1DLjHxqbDS-QXg7F-4" value="" style="strokeWidth=1;shadow=0;dashed=0;align=center;html=1;shape=mxgraph.mockup.forms.rrect;rSize=0;strokeColor=#999999;fillColor=#ffffff;" vertex="1" parent="6PyI1DLjHxqbDS-QXg7F-1">
          <mxGeometry x="428" y="120" width="219" height="311" as="geometry" />
        </mxCell>
        <mxCell id="6PyI1DLjHxqbDS-QXg7F-5" value="Sign In" style="strokeWidth=1;shadow=0;dashed=0;align=center;html=1;shape=mxgraph.mockup.forms.anchor;fontSize=12;fontColor=#666666;align=left;resizeWidth=1;spacingLeft=0;" vertex="1" parent="6PyI1DLjHxqbDS-QXg7F-4">
          <mxGeometry width="109.5" height="20" relative="1" as="geometry">
            <mxPoint x="10" y="10" as="offset" />
          </mxGeometry>
        </mxCell>
        <mxCell id="6PyI1DLjHxqbDS-QXg7F-6" value="" style="shape=line;strokeColor=#ddeeff;strokeWidth=2;html=1;resizeWidth=1;" vertex="1" parent="6PyI1DLjHxqbDS-QXg7F-4">
          <mxGeometry width="197.10000000000005" height="10" relative="1" as="geometry">
            <mxPoint x="10" y="30" as="offset" />
          </mxGeometry>
        </mxCell>
        <mxCell id="6PyI1DLjHxqbDS-QXg7F-7" value="User Name:" style="strokeWidth=1;shadow=0;dashed=0;align=center;html=1;shape=mxgraph.mockup.forms.anchor;fontSize=12;fontColor=#666666;align=left;resizeWidth=1;spacingLeft=0;" vertex="1" parent="6PyI1DLjHxqbDS-QXg7F-4">
          <mxGeometry width="109.5" height="20" relative="1" as="geometry">
            <mxPoint x="10" y="40" as="offset" />
          </mxGeometry>
        </mxCell>
        <mxCell id="6PyI1DLjHxqbDS-QXg7F-8" value="princesingh" style="strokeWidth=1;shadow=0;dashed=0;align=center;html=1;shape=mxgraph.mockup.forms.rrect;rSize=0;strokeColor=#999999;fontColor=#666666;align=left;spacingLeft=5;resizeWidth=1;" vertex="1" parent="6PyI1DLjHxqbDS-QXg7F-4">
          <mxGeometry width="164.25" height="25" relative="1" as="geometry">
            <mxPoint x="10" y="60" as="offset" />
          </mxGeometry>
        </mxCell>
        <mxCell id="6PyI1DLjHxqbDS-QXg7F-9" value="Password:" style="strokeWidth=1;shadow=0;dashed=0;align=center;html=1;shape=mxgraph.mockup.forms.anchor;fontSize=12;fontColor=#666666;align=left;resizeWidth=1;spacingLeft=0;" vertex="1" parent="6PyI1DLjHxqbDS-QXg7F-4">
          <mxGeometry width="109.5" height="20" relative="1" as="geometry">
            <mxPoint x="10" y="95" as="offset" />
          </mxGeometry>
        </mxCell>
        <mxCell id="6PyI1DLjHxqbDS-QXg7F-10" value="********" style="strokeWidth=1;shadow=0;dashed=0;align=center;html=1;shape=mxgraph.mockup.forms.rrect;rSize=0;strokeColor=#999999;fontColor=#666666;align=left;spacingLeft=5;resizeWidth=1;" vertex="1" parent="6PyI1DLjHxqbDS-QXg7F-4">
          <mxGeometry width="164.25" height="25" relative="1" as="geometry">
            <mxPoint x="10" y="115" as="offset" />
          </mxGeometry>
        </mxCell>
        <mxCell id="6PyI1DLjHxqbDS-QXg7F-11" value="SIGN IN" style="strokeWidth=1;shadow=0;dashed=0;align=center;html=1;shape=mxgraph.mockup.forms.rrect;rSize=5;strokeColor=none;fontColor=#ffffff;fillColor=#EBEBEB;fontSize=16;fontStyle=1;" vertex="1" parent="6PyI1DLjHxqbDS-QXg7F-4">
          <mxGeometry y="1" width="80" height="30" relative="1" as="geometry">
            <mxPoint x="20" y="-150" as="offset" />
          </mxGeometry>
        </mxCell>
        <mxCell id="6PyI1DLjHxqbDS-QXg7F-12" value="Forgot Password?" style="strokeWidth=1;shadow=0;dashed=0;align=center;html=1;shape=mxgraph.mockup.forms.anchor;fontSize=12;fontColor=#9999ff;align=left;spacingLeft=0;fontStyle=4;resizeWidth=1;" vertex="1" parent="6PyI1DLjHxqbDS-QXg7F-4">
          <mxGeometry y="1" width="164.25" height="20" relative="1" as="geometry">
            <mxPoint x="10" y="-110" as="offset" />
          </mxGeometry>
        </mxCell>
        <mxCell id="6PyI1DLjHxqbDS-QXg7F-13" value="" style="shape=line;strokeColor=#ddeeff;strokeWidth=2;html=1;resizeWidth=1;" vertex="1" parent="6PyI1DLjHxqbDS-QXg7F-4">
          <mxGeometry y="1" width="197.10000000000005" height="10" relative="1" as="geometry">
            <mxPoint x="10" y="-90" as="offset" />
          </mxGeometry>
        </mxCell>
        <mxCell id="6PyI1DLjHxqbDS-QXg7F-14" value="Sign in as" style="strokeWidth=1;shadow=0;dashed=0;align=center;html=1;shape=mxgraph.mockup.forms.anchor;fontSize=12;fontColor=#666666;align=left;spacingLeft=0;resizeWidth=1;" vertex="1" parent="6PyI1DLjHxqbDS-QXg7F-4">
          <mxGeometry y="1" width="164.25" height="20" relative="1" as="geometry">
            <mxPoint x="10" y="-70" as="offset" />
          </mxGeometry>
        </mxCell>
        <mxCell id="6PyI1DLjHxqbDS-QXg7F-15" value="SAGCloud User" style="strokeWidth=1;shadow=0;dashed=0;align=center;html=1;shape=mxgraph.mockup.forms.rrect;rSize=5;strokeColor=none;fontColor=#ffffff;fillColor=#66bbff;fontSize=16;fontStyle=1;" vertex="1" parent="6PyI1DLjHxqbDS-QXg7F-4">
          <mxGeometry y="1" width="175" height="30" relative="1" as="geometry">
            <mxPoint x="11" y="-43" as="offset" />
          </mxGeometry>
        </mxCell>
        <mxCell id="6PyI1DLjHxqbDS-QXg7F-16" value="" style="strokeWidth=1;shadow=0;dashed=0;align=center;html=1;shape=mxgraph.mockup.containers.browserWindow;rSize=0;strokeColor=#666666;strokeColor2=#008cff;strokeColor3=#c4c4c4;mainText=,;recursiveResize=0;" vertex="1" parent="1">
          <mxGeometry x="34" y="528" width="676" height="470" as="geometry" />
        </mxCell>
        <mxCell id="6PyI1DLjHxqbDS-QXg7F-17" value="Hybrid iPass" style="strokeWidth=1;shadow=0;dashed=0;align=center;html=1;shape=mxgraph.mockup.containers.anchor;fontSize=17;fontColor=#666666;align=left;whiteSpace=wrap;" vertex="1" parent="6PyI1DLjHxqbDS-QXg7F-16">
          <mxGeometry x="60" y="12" width="141" height="26" as="geometry" />
        </mxCell>
        <mxCell id="6PyI1DLjHxqbDS-QXg7F-18" value="https://&amp;lt;tenant&amp;gt;.hybrid-ipass.ibm.com" style="strokeWidth=1;shadow=0;dashed=0;align=center;html=1;shape=mxgraph.mockup.containers.anchor;rSize=0;fontSize=17;fontColor=#666666;align=left;" vertex="1" parent="6PyI1DLjHxqbDS-QXg7F-16">
          <mxGeometry x="130" y="60" width="250" height="26" as="geometry" />
        </mxCell>
        <mxCell id="6PyI1DLjHxqbDS-QXg7F-31" value="Integration" style="strokeWidth=1;shadow=0;dashed=0;align=center;html=1;shape=mxgraph.mockup.containers.window;align=left;verticalAlign=top;spacingLeft=8;strokeColor2=#008cff;strokeColor3=#c4c4c4;fontColor=#666666;mainText=;fontSize=17;labelBackgroundColor=none;whiteSpace=wrap;" vertex="1" parent="6PyI1DLjHxqbDS-QXg7F-16">
          <mxGeometry x="42" y="156.5" width="187" height="98" as="geometry" />
        </mxCell>
        <mxCell id="6PyI1DLjHxqbDS-QXg7F-34" value="MFT" style="strokeWidth=1;shadow=0;dashed=0;align=center;html=1;shape=mxgraph.mockup.containers.window;align=left;verticalAlign=top;spacingLeft=8;strokeColor2=#008cff;strokeColor3=#c4c4c4;fontColor=#666666;mainText=;fontSize=17;labelBackgroundColor=none;whiteSpace=wrap;" vertex="1" parent="6PyI1DLjHxqbDS-QXg7F-16">
          <mxGeometry x="244.5" y="156.5" width="187" height="98" as="geometry" />
        </mxCell>
        <mxCell id="6PyI1DLjHxqbDS-QXg7F-35" value="MFT" style="strokeWidth=1;shadow=0;dashed=0;align=center;html=1;shape=mxgraph.mockup.containers.window;align=left;verticalAlign=top;spacingLeft=8;strokeColor2=#008cff;strokeColor3=#c4c4c4;fontColor=#666666;mainText=;fontSize=17;labelBackgroundColor=none;whiteSpace=wrap;fillColor=light-dark(#FFFFCC,#000000);" vertex="1" parent="6PyI1DLjHxqbDS-QXg7F-16">
          <mxGeometry x="447" y="156.5" width="187" height="98" as="geometry" />
        </mxCell>
        <mxCell id="6PyI1DLjHxqbDS-QXg7F-36" value="Automation" style="strokeWidth=1;shadow=0;dashed=0;align=center;html=1;shape=mxgraph.mockup.containers.window;align=left;verticalAlign=top;spacingLeft=8;strokeColor2=#008cff;strokeColor3=#c4c4c4;fontColor=#666666;mainText=;fontSize=17;labelBackgroundColor=none;whiteSpace=wrap;" vertex="1" parent="6PyI1DLjHxqbDS-QXg7F-16">
          <mxGeometry x="42" y="276" width="187" height="98" as="geometry" />
        </mxCell>
        <mxCell id="6PyI1DLjHxqbDS-QXg7F-37" value="Integration" style="strokeWidth=1;shadow=0;dashed=0;align=center;html=1;shape=mxgraph.mockup.containers.window;align=left;verticalAlign=top;spacingLeft=8;strokeColor2=#008cff;strokeColor3=#c4c4c4;fontColor=#666666;mainText=;fontSize=17;labelBackgroundColor=none;whiteSpace=wrap;fillColor=light-dark(#FFFFCC,var(--ge-dark-color, #121212));" vertex="1" parent="6PyI1DLjHxqbDS-QXg7F-16">
          <mxGeometry x="244.5" y="276" width="187" height="98" as="geometry" />
        </mxCell>
        <mxCell id="6PyI1DLjHxqbDS-QXg7F-38" value="&amp;nbsp; &amp;nbsp; &amp;nbsp; &amp;nbsp; &amp;nbsp; &amp;nbsp; &amp;nbsp; &amp;nbsp; &amp;nbsp;From&amp;nbsp;&lt;div&gt;SAGCloud&lt;/div&gt;" style="strokeWidth=1;shadow=0;dashed=0;align=center;html=1;shape=mxgraph.mockup.text.callout;linkText=;textSize=17;textColor=#666666;callDir=SE;callStyle=line;fontSize=17;fontColor=#666666;align=right;verticalAlign=bottom;strokeColor=#666666;" vertex="1" parent="6PyI1DLjHxqbDS-QXg7F-16">
          <mxGeometry x="326" y="380" width="149" height="66" as="geometry" />
        </mxCell>
        <mxCell id="6PyI1DLjHxqbDS-QXg7F-39" value="&amp;nbsp; &amp;nbsp; &amp;nbsp; &amp;nbsp; &amp;nbsp; &amp;nbsp; &amp;nbsp; &amp;nbsp; &amp;nbsp;From&amp;nbsp;&lt;div&gt;SAGCloud&lt;/div&gt;" style="strokeWidth=1;shadow=0;dashed=0;align=center;html=1;shape=mxgraph.mockup.text.callout;linkText=;textSize=17;textColor=#666666;callDir=SE;callStyle=line;fontSize=17;fontColor=#666666;align=right;verticalAlign=bottom;strokeColor=#666666;" vertex="1" parent="6PyI1DLjHxqbDS-QXg7F-16">
          <mxGeometry x="485" y="259" width="149" height="66" as="geometry" />
        </mxCell>
        <mxCell id="6PyI1DLjHxqbDS-QXg7F-54" value="" style="group" vertex="1" connectable="0" parent="6PyI1DLjHxqbDS-QXg7F-16">
          <mxGeometry x="12" y="115" width="163" height="30" as="geometry" />
        </mxCell>
        <mxCell id="6PyI1DLjHxqbDS-QXg7F-47" value="Home" style="strokeWidth=1;shadow=0;dashed=0;align=center;html=1;shape=mxgraph.mockup.navigation.anchor;fontSize=17;fontColor=#666666;fontStyle=1;" vertex="1" parent="6PyI1DLjHxqbDS-QXg7F-54">
          <mxGeometry width="60" height="30" as="geometry" />
        </mxCell>
        <mxCell id="6PyI1DLjHxqbDS-QXg7F-48" value="&gt;" style="strokeWidth=1;shadow=0;dashed=0;align=center;html=1;shape=mxgraph.mockup.navigation.anchor;fontSize=24;fontColor=#aaaaaa;fontStyle=1;" vertex="1" parent="6PyI1DLjHxqbDS-QXg7F-54">
          <mxGeometry x="60" width="20" height="30" as="geometry" />
        </mxCell>
        <mxCell id="6PyI1DLjHxqbDS-QXg7F-53" value="Capabilities" style="strokeWidth=1;shadow=0;dashed=0;align=center;html=1;shape=mxgraph.mockup.navigation.anchor;fontSize=17;fontColor=#008cff;fontStyle=1;" vertex="1" parent="6PyI1DLjHxqbDS-QXg7F-54">
          <mxGeometry x="103" width="60" height="30" as="geometry" />
        </mxCell>
      </root>
    </mxGraphModel>
  </diagram>
</mxfile>
